<?xml version="1.0" encoding="UTF-8"?>
<svg id="Layer_2" xmlns="http://www.w3.org/2000/svg" viewBox="0 0 88.23 129.99">
  <defs>
    <style>
      .cls-1 {
        fill: #fe492c;
        fill-rule: evenodd;
      }
    </style>
  </defs>
  <g id="Layer_1-2" data-name="Layer_1">
    <path class="cls-1" d="M39.56,101.39c-3.57-.28-7.2-.92-10.73-1.93-.01,1.96.09,4.08,1.53,5.51,4.82,3.35,14.77,2.18,20.61,2.14,7.37-.4,10.95-.6,11.49-8.66-6.56,2.41-13.64,3.55-20.3,3.11-.88-.02-1.74-.08-2.6-.16h0ZM43.76,99.49c0,.13.04.26.09.38h-.16c-6.36-.4-9.59-7.55-11.57-12.85-3.47-10.44-3.8-21.8-1.72-32.58,2.51-12.03,7.44-18.38,12.52-19.04,0,.78.02,1.56.03,2.34.05,3.59.09,7.18.14,10.77.05,3.64.09,7.28.14,10.92.05,3.53.09,7.06.14,10.58.05,3.63.09,7.26.14,10.89.05,3.48.09,6.95.14,10.43.03,2.72.07,5.44.1,8.16h0ZM44.6,35.39c5.11.58,10.1,6.93,12.63,19.06,2.08,10.77,1.75,22.19-1.74,32.64-1.82,4.84-4.63,11.14-10.07,12.57.01-.05.02-.11.01-.16,0-.4-.01-.8-.01-1.2-.04-3.26-.08-6.53-.13-9.79-.05-3.48-.09-6.96-.14-10.45-.05-3.64-.09-7.28-.14-10.92-.05-3.52-.09-7.04-.14-10.55-.05-3.64-.09-7.27-.14-10.91-.04-3.43-.1-6.85-.13-10.28h0ZM37.71,99.01c-16.93-4.75-24.19-28.03-18.13-44.08,3.41-9.97,10.26-16.36,17.9-18.66-2.65,2.24-4.78,5.59-6.02,8.93-5.85,12.94-6.28,43.48,6.25,53.81h0ZM50.23,36.22c6.24,1.86,12.04,6.58,16.03,14.43,8.69,16.42,2.53,42.52-16,48.21,1.54-1.32,2.84-2.98,3.79-4.67,6-10.62,6.9-23.47,5.58-35.39-1.11-7.85-3.17-16.25-8.86-22.08-.18-.18-.36-.34-.54-.5h0ZM30.73,97.63c-14.86-9.35-19.01-32.79-10.59-48.21,2.82-5.29,6.35-9.16,10.25-11.74-7.86,2.87-14.73,8.36-18.78,16.4-9.13,18.64,2.04,37.2,19.11,43.55h0ZM56.69,37.45c6.58,4.05,11.9,11.2,14.06,20.79,3.69,13.92-1.85,31.67-13.79,39.41,18.65-6.86,29.37-28.41,17.07-46.98-4.29-6.44-10.47-10.83-17.34-13.22h0ZM22.53,95.38c-13.9-9.13-20.97-26.93-11.58-43.58,2.79-4.91,6.57-8.8,10.94-11.71-4.88,2.33-9.31,5.48-12.98,9.45-15.48,18.7-4.19,37.52,13.61,45.84h0ZM63.87,38.93c5.96,3.45,10.97,8.58,14.12,15.38,7.67,16.8-.32,33.66-14.33,41.96,17.46-7.2,30.26-24.5,18.26-43.39-4.58-6.38-10.91-11.02-18.05-13.95h0ZM60.86,125.57c-1.89-4.52-3.03-9.32-3.61-14.18,0-1.02-.42-2.26-.18-3.28-1.06.21-2.12.37-3.2.48.22.14.39.38.42.71,1.03,6.18.99,12.51.62,18.74.01,1.07-1.69,1.08-1.67,0,.32-6.24.51-12.65-.71-18.8,0-.24.08-.42.2-.55-1.57.13-3.15.18-4.73.21h0c0,1.74.14,3.47.22,5.2.18,3.18.15,6.37-.12,9.54-.3,1.08.27,4.86-1.29,4.67-.46-.06-.76-.49-.71-.94.19-1.66.3-3.32.42-4.98.39-4.49-.1-8.98-.19-13.47-1.32,0-2.64,0-3.95.01.01.16-.02.33-.13.5-.7,4.64-.76,9.23-.6,13.89.16,1.92.42,3.83.78,5.72.14.71-.79,1.23-1.33.77-1.63-3.8-1.5-16.31-.33-20.91-1.03-.03-2.15-.07-3.29-.15.03.16.02.33-.02.5-.05,3.54-.29,7.08-.93,10.56-.51,2.84-1.12,5.66-1.88,8.45-.12.44-.6.7-1.03.58-.43-.12-.71-.59-.58-1.02.52-1.87.93-3.77,1.34-5.66.95-4.33,1.36-8.75,1.43-13.18,0-.13.03-.25.08-.36-1.15-.14-2.29-.35-3.34-.68-.24,2.02-.24,4.06-.48,6.08-.37,3.59-1.01,7.16-1.87,10.67-.11.44-.6.7-1.03.58-1.34-.47.07-2.84.06-3.89,1.08-4.62,1.25-9.37,1.73-14.07-1.94-.97-3.36-2.55-3.61-5.16.02-.82-.32-2.14-.28-3.21-11.18-3.61-21.17-10.96-25.4-22.13-5.24-13.46,2.49-28.34,14.31-35.4,3.41-2.16,7.15-3.88,11.08-5.15-.06-1.08.29-2.42.27-3.25.29-2.9,1.99-4.52,4.26-5.45,2.49-2.26,5.04-4.43,7.69-6.5.96-.54,3.98-3.8,5.56-4.16-.68-3.84-.26-7.94-.42-11.84.22-1.14-.75-5.03.8-5.04,1.44.16.6,2.27.84,3.26.04,2.61.03,5.21.06,7.82,0,1.91.16,3.72.31,5.59.24.06.47.2.64.45,2.49,2.14,4.74,4.54,7.05,6.86,1,1.02,2,2.04,3.08,2.97.06.05.12.1.18.14.69.15,1.37.32,2.04.51,3.66,1.48,4.54,6.05,4.72,9.61,8.76,3.47,16.33,9.42,21.04,17.98,9.18,19.56-3.79,35.56-21.03,42.59-.16,3.58-1.02,8.24-4.73,9.74-.25.07-.49.14-.74.2.07.18.08.38,0,.59.1,3.66.82,7.29,1.71,10.83.56,1.98,1.2,3.88,1.98,5.78.43.99-1.12,1.66-1.53.65h0ZM45.89,18.18c-.11.03-.22.04-.33.03-.02.02-.05.04-.08.06-3.42,2.53-6.72,5.33-10,8.04-.12.07-.27.18-.43.32,2.28-.35,4.68-.37,6.61-.45,4.22.06,8.55-.1,12.77.42-2.89-2.76-5.64-5.7-8.56-8.42h0ZM56.56,28.56l-.03-.03c-1.54-.29-3.38-.39-5.56-.51-5.84-.05-15.78-1.21-20.61,2.14-1.44,1.43-1.54,3.58-1.53,5.55,10.87-3.11,23.02-2.88,33.62.86-.37-5.2-2.03-7.09-5.19-7.88-.23.07-.49.04-.7-.13Z"/>
  </g>
</svg>